<svg width="1000" height="1000" viewBox="0 0 1000 1000" fill="none" xmlns="http://www.w3.org/2000/svg">
<g clip-path="url(#clip0_1_2)">
<rect width="1000" height="1000" rx="253" fill="#F0ECE4"/>
<path d="M732.488 255.512H709.233V278.767H685.977L685.977 302.023L360.395 302.023V325.279H337.14L337.14 674.116H360.395L360.395 697.372L476.674 697.372L476.674 348.535H523.186V697.372H685.977V720.628H709.233V743.884H732.488V767.14H755.744V790.395L313.884 790.395V767.14H290.628V743.884H267.372V720.628L244.116 720.628L244.116 371.791H267.372V348.535H290.628V325.279H313.884V302.023H337.14V278.767H360.395L360.395 255.512H383.651V232.256H406.907V209H569.698L569.698 232.256L592.954 232.256V255.512H685.977V232.256H709.233V209H732.488V255.512ZM662.721 464.814H755.744V511.326L662.721 511.326V557.837H755.744V604.349H662.721L662.721 650.861H569.698L569.698 348.535L662.721 348.535V464.814Z" fill="#2A26FD"/>
</g>
<defs>
<clipPath id="clip0_1_2">
<rect width="1000" height="1000" rx="253" fill="white"/>
</clipPath>
</defs>
</svg>
